<svg width="96" height="96" viewBox="0 0 96 96" fill="none" xmlns="http://www.w3.org/2000/svg">
  <defs>
    <linearGradient id="logoGradient" x1="12" y1="12" x2="84" y2="84" gradientUnits="userSpaceOnUse">
      <stop stop-color="#1A7F5A"/>
      <stop offset="1" stop-color="#2F6F91"/>
    </linearGradient>
  </defs>
  <rect x="8" y="8" width="80" height="80" rx="20" fill="url(#logoGradient)"/>
  <path d="M26 60V36H41.5C47.5 36 51 39.2 51 44.1C51 47.5 49.1 49.8 45.9 50.8L52 60H44.5L39.3 52.1H33.1V60H26ZM33.1 46.7H40C42.5 46.7 44 45.6 44 43.6C44 41.5 42.5 40.4 40 40.4H33.1V46.7Z" fill="white"/>
  <path d="M56 60V36H63.1V45.4H72.2V36H79.3V60H72.2V50.9H63.1V60H56Z" fill="white"/>
</svg>
